# xmcd CD database file
#
# Track frame offsets:
#	150
#	20321
#	35054
#	48797
#	73745
#	85837
#	98887
#	118617
#	131444
#	156969
#	179014
#	203391
#	217352
#	230556
#	243771
#	256373
#	266821
#	285611
#
# Disc length: 3949 seconds
#
# Revision: 0
# Processed by: cddbd v1.5.2PL0 Copyright (c) Steve Scherf et al.
# Submitted via: CDex 1.70beta2
#
DISCID=060f6b12
DTITLE=Various Artist - Bar Jazz
DYEAR=1900
DGENRE=Jazz
TTITLE0=Antonio Carlos Jobim - Captain Bacardi
TTITLE1=Shirley Scott - Dreamsville
TTITLE2=Mel Torme - Moonlight Cocktail
TTITLE3=Kenny Burrell - Rose Room
TTITLE4=Coleman Hawkins and Ben Webster - Cocktails For Two
TTITLE5=Don Randi Trio - Sherry Blue
TTITLE6=Dizzy Gillespie - In A Shanty In Old Shanty Town
TTITLE7=Walter Wanderley - The Bobo
TTITLE8=Billie Holiday - One For My Baby (And One More For The Road)
TTITLE9=Gerry Mulligan - Night Lights
TTITLE10=Ruth Cameron - Something Cool
TTITLE11=Stan Getz - 'Round Midnight
TTITLE12=Art Van Damme - Cheers
TTITLE13=Xavier Cugat and His Orchestra - Daiquiri
TTITLE14=The Three Sounds - After Hours
TTITLE15=Freddy Cole - Waiter, Ask The Man To Play The Blues
TTITLE16=Oscar Peterson Trio - The Strut
TTITLE17=Anita O'day and Cal Tjader - The Party's Over
EXTD=
EXTT0=
EXTT1=
EXTT2=
EXTT3=
EXTT4=
EXTT5=
EXTT6=
EXTT7=
EXTT8=
EXTT9=
EXTT10=
EXTT11=
EXTT12=
EXTT13=
EXTT14=
EXTT15=
EXTT16=
EXTT17=
PLAYORDER=
